<?xml version="1.0" encoding="UTF-8" standalone="no"?>
<!DOCTYPE svg PUBLIC "-//W3C//DTD SVG 1.1//EN" "http://www.w3.org/Graphics/SVG/1.1/DTD/svg11.dtd">
<svg width="100%" height="100%" viewBox="0 0 512 512" version="1.1" xmlns="http://www.w3.org/2000/svg" xmlns:xlink="http://www.w3.org/1999/xlink" xml:space="preserve" xmlns:serif="http://www.serif.com/" style="fill-rule:evenodd;clip-rule:evenodd;stroke-linejoin:round;stroke-miterlimit:2;">
    <g transform="matrix(0.998978,0,0,0.981503,0.549969,6.72695)">
        <rect x="-0.551" y="-6.854" width="512.524" height="521.649" style="fill:rgb(48,48,48);"/>
    </g>
    <g transform="matrix(0.716731,0,0,1.02063,37.5941,11.4262)">
        <path d="M148.46,94.622C148.46,88.133 140.958,82.864 131.717,82.864L98.232,82.864C88.992,82.864 81.489,88.133 81.489,94.622L81.489,384.639C81.489,391.128 88.992,396.396 98.232,396.396L148.46,396.396L148.46,94.622Z" style="fill:white;"/>
    </g>
    <g transform="matrix(1.09666,0,0,0.951748,-27.7475,281.087)">
        <path d="M404.636,103.928C404.636,96.969 399.733,91.319 393.693,91.319L112.84,91.319L112.84,129.144C112.84,136.103 117.744,141.753 123.783,141.753L393.693,141.753C399.733,141.753 404.636,136.103 404.636,129.144L404.636,103.928Z" style="fill:white;"/>
    </g>
    <g transform="matrix(0.712829,0,0,0.634499,95.5641,246.058)">
        <path d="M404.636,103.928C404.636,96.969 399.607,91.319 393.413,91.319L112.84,91.319L112.84,141.753L393.413,141.753C399.607,141.753 404.636,136.103 404.636,129.144L404.636,103.928Z" style="fill:white;"/>
    </g>
    <g transform="matrix(0.712829,0,0,0.634499,95.5641,118.058)">
        <path d="M404.636,103.928C404.636,96.969 399.607,91.319 393.413,91.319L112.84,91.319L112.84,141.753L393.413,141.753C399.607,141.753 404.636,136.103 404.636,129.144L404.636,103.928Z" style="fill:white;"/>
    </g>
    <g transform="matrix(0.712829,0,0,0.634499,95.5641,182.058)">
        <path d="M404.636,103.928C404.636,96.969 399.607,91.319 393.413,91.319L112.84,91.319L112.84,141.753L393.413,141.753C399.607,141.753 404.636,136.103 404.636,129.144L404.636,103.928Z" style="fill:white;"/>
    </g>
    <g transform="matrix(0.712829,0,0,0.634499,95.5641,54.0581)">
        <path d="M404.636,103.928C404.636,96.969 399.607,91.319 393.413,91.319L112.84,91.319L112.84,141.753L393.413,141.753C399.607,141.753 404.636,136.103 404.636,129.144L404.636,103.928Z" style="fill:white;"/>
    </g>
</svg>
